<svg width="30" height="22" viewBox="0 0 30 22" fill="none" xmlns="http://www.w3.org/2000/svg">
<path d="M15.0956 0.463379H15.2625C16.8038 0.469004 24.6131 0.525254 26.7188 1.0915C27.3553 1.26432 27.9353 1.60117 28.4009 2.06839C28.8665 2.53562 29.2013 3.11685 29.3719 3.754C29.5613 4.4665 29.6944 5.40963 29.7844 6.38275L29.8031 6.57775L29.8444 7.06525L29.8594 7.26025C29.9813 8.974 29.9963 10.579 29.9981 10.9296V11.0703C29.9963 11.434 29.9794 13.1478 29.8444 14.9328L29.8294 15.1296L29.8125 15.3246C29.7188 16.3971 29.58 17.4621 29.3719 18.2459C29.2013 18.883 28.8665 19.4643 28.4009 19.9315C27.9353 20.3987 27.3553 20.7356 26.7188 20.9084C24.5438 21.4934 16.2769 21.5346 15.1312 21.5365H14.865C14.2856 21.5365 11.8894 21.5253 9.37687 21.439L9.05812 21.4278L8.895 21.4203L8.57438 21.4071L8.25375 21.394C6.1725 21.3021 4.19063 21.154 3.2775 20.9065C2.64118 20.7339 2.06128 20.3973 1.59572 19.9304C1.13016 19.4635 0.795231 18.8827 0.624375 18.2459C0.41625 17.464 0.2775 16.3971 0.18375 15.3246L0.16875 15.1278L0.15375 14.9328C0.0606814 13.6623 0.00940372 12.3891 0 11.1153L0 10.8846C0.00375 10.4815 0.01875 9.08838 0.12 7.55088L0.133125 7.35775L0.13875 7.26025L0.15375 7.06525L0.195 6.57775L0.21375 6.38275C0.30375 5.40963 0.436875 4.46463 0.62625 3.754C0.79682 3.11685 1.13162 2.53562 1.5972 2.06839C2.06278 1.60117 2.64283 1.26432 3.27937 1.0915C4.1925 0.847754 6.17437 0.697754 8.25562 0.604004L8.57438 0.590879L8.89687 0.579629L9.05812 0.574004L9.37875 0.560879C11.1632 0.503511 12.9484 0.471632 14.7337 0.465254L15.0956 0.463379ZM12 6.48213V15.5159L19.7944 11.0009L12 6.48213Z" fill="white"/>
</svg>
