<svg width="14" height="14" viewBox="0 0 14 14" fill="none" xmlns="http://www.w3.org/2000/svg">
<path fill-rule="evenodd" clip-rule="evenodd" d="M3.35896 0.947088C5.84349 0.687321 8.3491 0.702741 10.8302 0.993065C12.1857 1.15284 13.2727 2.2274 13.4236 3.58979C13.7023 6.10917 13.6867 8.65245 13.377 11.1682C13.2093 12.5286 12.1092 13.5897 10.7526 13.7335C8.2678 13.9934 5.76193 13.9779 3.28056 13.6876C1.92509 13.5271 0.838111 12.4525 0.687202 11.0908C0.408403 8.57122 0.424056 6.0277 0.733843 3.5117C0.901503 2.15127 2.00163 1.09017 3.35896 0.947088ZM10.6531 3.0763C10.4637 3.07513 10.2816 3.14927 10.1468 3.2824C10.012 3.41553 9.93564 3.59674 9.93447 3.78618C9.9333 3.97561 10.0074 4.15775 10.1406 4.29253C10.2737 4.42731 10.4549 4.50368 10.6443 4.50484C10.8338 4.50601 11.0159 4.43188 11.1507 4.29875C11.2855 4.16562 11.3618 3.9844 11.363 3.79497C11.3642 3.60553 11.29 3.42339 11.1569 3.28861C11.0238 3.15384 10.8426 3.07747 10.6531 3.0763ZM3.66261 7.31908C3.66815 6.41925 4.03091 5.55848 4.6711 4.92613C5.31129 4.29377 6.17646 3.94163 7.07628 3.94716C7.97611 3.9527 8.83688 4.31547 9.46923 4.95565C10.1016 5.59584 10.4537 6.46101 10.4482 7.36083C10.4427 8.26066 10.0799 9.12143 9.43971 9.75379C8.79952 10.3861 7.93435 10.7383 7.03452 10.7327C6.1347 10.7272 5.27393 10.3644 4.64157 9.72426C4.00922 9.08407 3.65707 8.2189 3.66261 7.31908Z" fill="#2D387D"/>
</svg>
