<svg width="13" height="13" viewBox="0 0 13 13" fill="none" xmlns="http://www.w3.org/2000/svg">
<path d="M1.78415 0.696405C1.43192 0.694238 1.09325 0.832083 0.842652 1.07962C0.592053 1.32715 0.450049 1.6641 0.447882 2.01633C0.445714 2.36857 0.58356 2.70723 0.831094 2.95783C1.07863 3.20843 1.41557 3.35044 1.76781 3.3526C2.12004 3.35477 2.45871 3.21693 2.70931 2.96939C2.95991 2.72186 3.10191 2.38491 3.10408 2.03268C3.10625 1.68044 2.9684 1.34178 2.72087 1.09118C2.47334 0.840576 2.13639 0.698573 1.78415 0.696405ZM0.511102 4.43864C0.490382 4.43851 0.47046 4.44662 0.455719 4.46118C0.440978 4.47574 0.432625 4.49557 0.432497 4.51628L0.382498 12.6411C0.382233 12.6843 0.417017 12.7195 0.460141 12.7197L2.96009 12.7351C2.98081 12.7352 3.00074 12.7271 3.01548 12.7126C3.03022 12.698 3.03857 12.6782 3.0387 12.6575L3.0887 4.53263C3.08882 4.51191 3.08072 4.49199 3.06616 4.47725C3.05159 4.46251 3.03177 4.45415 3.01105 4.45403L0.511102 4.43864ZM4.57352 4.46364C4.55281 4.46351 4.53288 4.47162 4.51814 4.48618C4.5034 4.50074 4.49505 4.52056 4.49492 4.54128L4.44492 12.6661C4.44466 12.7093 4.47944 12.7445 4.52256 12.7447L7.02252 12.7601C7.04324 12.7602 7.06316 12.7521 7.0779 12.7376C7.09264 12.723 7.10099 12.7032 7.10112 12.6825L7.12804 8.30756C7.12996 7.99676 7.25525 7.69946 7.47637 7.48105C7.69749 7.26263 7.99631 7.14101 8.30711 7.14292C8.6179 7.14483 8.91521 7.27013 9.13362 7.49124C9.35203 7.71236 9.47366 8.01119 9.47175 8.32198L9.44483 12.6969C9.44456 12.74 9.47935 12.7752 9.52247 12.7755L12.0224 12.7909C12.0431 12.791 12.0631 12.7829 12.0778 12.7683C12.0925 12.7538 12.1009 12.734 12.101 12.7132L12.1342 7.32585C12.1435 5.809 10.8321 4.61466 9.3219 4.74224C8.85469 4.78221 8.39659 4.89495 7.96419 5.07639L7.1458 5.42136L7.15112 4.55763C7.15125 4.53691 7.14314 4.51699 7.12858 4.50225C7.11402 4.48751 7.0942 4.47915 7.07348 4.47903L4.57352 4.46364Z" fill="#2D387D"/>
</svg>
