<svg width="25" height="24" viewBox="0 0 25 24" fill="none" xmlns="http://www.w3.org/2000/svg">
<path d="M5.67499 3.25C5.67466 3.91304 5.41095 4.54879 4.94187 5.0174C4.4728 5.48601 3.83678 5.74908 3.17374 5.74875C2.5107 5.74842 1.87494 5.48471 1.40634 5.01563C0.937731 4.54656 0.674657 3.91054 0.674988 3.2475C0.67532 2.58446 0.93903 1.9487 1.4081 1.4801C1.87718 1.01149 2.5132 0.748418 3.17624 0.748749C3.83928 0.749081 4.47503 1.01279 4.94364 1.48187C5.41225 1.95094 5.67532 2.58696 5.67499 3.25ZM5.74999 7.6H0.749988V23.25H5.74999V7.6ZM13.65 7.6H8.67499V23.25H13.6V15.0375C13.6 10.4625 19.5625 10.0375 19.5625 15.0375V23.25H24.5V13.3375C24.5 5.625 15.675 5.9125 13.6 9.7L13.65 7.6Z" fill="white"/>
</svg>
