<svg width="32" height="44" viewBox="0 0 32 44" fill="none" xmlns="http://www.w3.org/2000/svg">
<path d="M16 0.125C7.37402 0.125 0.375 6.4248 0.375 14.1875C0.375 26.6875 16 43.875 16 43.875C16 43.875 31.625 26.6875 31.625 14.1875C31.625 6.4248 24.626 0.125 16 0.125ZM16 22C14.7639 22 13.5555 21.6334 12.5277 20.9467C11.4999 20.2599 10.6988 19.2838 10.2258 18.1418C9.7527 16.9997 9.62893 15.7431 9.87009 14.5307C10.1112 13.3183 10.7065 12.2047 11.5806 11.3306C12.4547 10.4565 13.5683 9.86125 14.7807 9.62009C15.9931 9.37893 17.2497 9.5027 18.3918 9.97575C19.5338 10.4488 20.5099 11.2499 21.1967 12.2777C21.8834 13.3055 22.25 14.5139 22.25 15.75C22.2482 17.407 21.5891 18.9957 20.4174 20.1674C19.2457 21.3391 17.657 21.9982 16 22Z" fill="white"/>
</svg>
