<svg width="80" height="80" viewBox="0 0 80 80" fill="none" xmlns="http://www.w3.org/2000/svg">
<path d="M17.1695 50.3887C17.1681 52.0245 16.6818 53.6231 15.772 54.9826C14.8622 56.342 13.5697 57.4012 12.0581 58.0262C10.5464 58.6513 8.88332 58.8141 7.27912 58.4941C5.67492 58.1741 4.2016 57.3857 3.04541 56.2285C1.88922 55.0714 1.10206 53.5974 0.783439 51.9929C0.464822 50.3884 0.62905 48.7255 1.25536 47.2144C1.88168 45.7032 2.94196 44.4117 4.30217 43.503C5.66239 42.5944 7.26147 42.1094 8.89727 42.1094H17.1695V50.3887ZM21.3391 50.3887C21.3391 48.1947 22.2106 46.0906 23.762 44.5393C25.3133 42.9879 27.4174 42.1164 29.6113 42.1164C31.8053 42.1164 33.9094 42.9879 35.4607 44.5393C37.0121 46.0906 37.8836 48.1947 37.8836 50.3887V71.1027C37.8836 73.2967 37.0121 75.4008 35.4607 76.9521C33.9094 78.5035 31.8053 79.375 29.6113 79.375C27.4174 79.375 25.3133 78.5035 23.762 76.9521C22.2106 75.4008 21.3391 73.2967 21.3391 71.1027V50.3887ZM29.6113 17.1695C27.9755 17.1681 26.3769 16.6818 25.0174 15.772C23.658 14.8622 22.5988 13.5697 21.9738 12.0581C21.3487 10.5464 21.1859 8.88332 21.5059 7.27912C21.8259 5.67492 22.6143 4.2016 23.7715 3.04541C24.9286 1.88922 26.4026 1.10206 28.0071 0.783439C29.6116 0.464822 31.2745 0.62905 32.7856 1.25536C34.2968 1.88168 35.5883 2.94196 36.497 4.30217C37.4056 5.66239 37.8906 7.26147 37.8906 8.89727V17.1695H29.6113ZM29.6113 21.3391C31.8053 21.3391 33.9094 22.2106 35.4607 23.762C37.0121 25.3133 37.8836 27.4174 37.8836 29.6113C37.8836 31.8053 37.0121 33.9094 35.4607 35.4607C33.9094 37.0121 31.8053 37.8836 29.6113 37.8836H8.89727C6.70332 37.8836 4.59924 37.0121 3.04789 35.4607C1.49654 33.9094 0.625001 31.8053 0.625001 29.6113C0.625001 27.4174 1.49654 25.3133 3.04789 23.762C4.59924 22.2106 6.70332 21.3391 8.89727 21.3391H29.6113ZM62.8305 29.6113C62.8319 27.9755 63.3182 26.3769 64.228 25.0174C65.1378 23.658 66.4303 22.5988 67.9419 21.9738C69.4536 21.3487 71.1167 21.1859 72.7209 21.5059C74.3251 21.8259 75.7984 22.6143 76.9546 23.7715C78.1108 24.9286 78.8979 26.4026 79.2166 28.0071C79.5352 29.6116 79.3709 31.2745 78.7446 32.7856C78.1183 34.2968 77.058 35.5883 75.6978 36.497C74.3376 37.4056 72.7385 37.8906 71.1027 37.8906H62.8305V29.6113ZM58.6609 29.6113C58.6609 31.8053 57.7894 33.9094 56.238 35.4607C54.6867 37.0121 52.5826 37.8836 50.3887 37.8836C48.1947 37.8836 46.0906 37.0121 44.5393 35.4607C42.9879 33.9094 42.1164 31.8053 42.1164 29.6113V8.89727C42.1164 6.70332 42.9879 4.59924 44.5393 3.04789C46.0906 1.49654 48.1947 0.625001 50.3887 0.625001C52.5826 0.625001 54.6867 1.49654 56.238 3.04789C57.7894 4.59924 58.6609 6.70332 58.6609 8.89727V29.6113ZM50.3887 62.8305C52.0245 62.8319 53.6231 63.3182 54.9826 64.228C56.342 65.1378 57.4012 66.4303 58.0262 67.9419C58.6513 69.4536 58.8141 71.1167 58.4941 72.7209C58.1741 74.3251 57.3857 75.7984 56.2285 76.9546C55.0714 78.1108 53.5974 78.8979 51.9929 79.2166C50.3884 79.5352 48.7255 79.3709 47.2144 78.7446C45.7032 78.1183 44.4117 77.058 43.503 75.6978C42.5944 74.3376 42.1094 72.7385 42.1094 71.1027V62.8305H50.3887ZM50.3887 58.6609C48.1947 58.6609 46.0906 57.7894 44.5393 56.238C42.9879 54.6867 42.1164 52.5826 42.1164 50.3887C42.1164 48.1947 42.9879 46.0906 44.5393 44.5393C46.0906 42.9879 48.1947 42.1164 50.3887 42.1164H71.1027C73.2967 42.1164 75.4008 42.9879 76.9521 44.5393C78.5035 46.0906 79.375 48.1947 79.375 50.3887C79.375 52.5826 78.5035 54.6867 76.9521 56.238C75.4008 57.7894 73.2967 58.6609 71.1027 58.6609H50.3887Z" fill="url(#paint0_linear_4_175)"/>
<defs>
<linearGradient id="paint0_linear_4_175" x1="0.625" y1="0.625" x2="79.375" y2="79.375" gradientUnits="userSpaceOnUse">
<stop stop-color="#52E5E7"/>
<stop offset="1" stop-color="#130CB7"/>
</linearGradient>
</defs>
</svg>
