<svg width="45" height="46" viewBox="0 0 45 46" fill="none" xmlns="http://www.w3.org/2000/svg">
<path fill-rule="evenodd" clip-rule="evenodd" d="M41.6234 26.9814C42.2625 27.0009 42.8831 26.7657 43.3488 26.3276C43.8145 25.8895 44.087 25.2843 44.1065 24.6453C44.295 18.4677 42.0217 12.4682 37.7867 7.96669C33.5518 3.46519 27.702 0.830391 21.5244 0.641924C20.8853 0.622427 20.2647 0.857596 19.799 1.2957C19.3334 1.7338 19.0608 2.33894 19.0413 2.97801C19.0218 3.61707 19.257 4.2377 19.6951 4.70338C20.1332 5.16905 20.7383 5.44161 21.3774 5.46111C26.2769 5.61058 30.9163 7.70025 34.2751 11.2704C37.6338 14.8406 39.4368 19.5988 39.2873 24.4982C39.2678 25.1373 39.503 25.7579 39.9411 26.2236C40.3792 26.6893 40.9844 26.9619 41.6234 26.9814ZM1.24752 22.2958C0.2259 20.5976 -0.183705 18.6008 0.0868031 16.6375C0.357311 14.6743 1.29163 12.8627 2.73444 11.504L3.99254 10.3204C4.55642 9.79557 5.30456 9.51439 6.07452 9.53788C6.84447 9.56137 7.57408 9.88764 8.10492 10.4458L13.0564 15.7422C13.5794 16.3005 13.8599 17.0433 13.8366 17.808C13.8133 18.5727 13.488 19.297 12.9319 19.8224C12.3737 20.3532 12.0475 21.0828 12.024 21.8528C12.0005 22.6228 12.2817 23.3709 12.8065 23.9348L20.7492 32.3773C21.28 32.9355 22.0096 33.2618 22.7796 33.2853C23.5495 33.3088 24.2977 33.0276 24.8615 32.5028C25.4199 31.9798 26.1627 31.6993 26.9274 31.7226C27.692 31.7459 28.4163 32.0712 28.9418 32.6273L33.9313 37.7318C34.4561 38.2957 34.7373 39.0438 34.7138 39.8138C34.6903 40.5837 34.364 41.3133 33.8058 41.8442L32.5477 43.0278C31.1226 44.4108 29.2663 45.2633 27.2886 45.4429C25.3109 45.6225 23.3314 45.1184 21.6804 44.0147C13.5325 38.1606 6.59409 30.7854 1.24752 22.2958ZM34.7811 25.3705C34.7616 26.0096 34.4891 26.6147 34.0234 27.0528C33.5577 27.4909 32.9371 27.7261 32.298 27.7066C31.659 27.6871 31.0538 27.4146 30.6157 26.9489C30.1776 26.4832 29.9425 25.8626 29.962 25.2235C30.0464 22.4542 29.0274 19.7648 27.1289 17.7469C25.2305 15.729 22.6082 14.5479 19.8389 14.4634C19.1999 14.4439 18.5947 14.1713 18.1566 13.7056C17.7185 13.24 17.4834 12.6193 17.5029 11.9803C17.5223 11.3412 17.7949 10.7361 18.2606 10.298C18.7263 9.85987 19.3469 9.6247 19.986 9.6442C24.0334 9.76768 27.8659 11.4939 30.6406 14.4432C33.4152 17.3924 34.9046 21.3231 34.7811 25.3705Z" fill="white"/>
</svg>
