<svg width="26" height="22" viewBox="0 0 26 22" fill="none" xmlns="http://www.w3.org/2000/svg">
<path d="M25.5 3.24999C24.5604 3.65744 23.5667 3.92689 22.55 4.04999C23.6227 3.40914 24.4266 2.40097 24.8125 1.21249C23.8046 1.81279 22.701 2.2356 21.55 2.46249C20.7807 1.6282 19.7562 1.07286 18.6373 0.883552C17.5183 0.694246 16.3682 0.881685 15.3672 1.41647C14.3663 1.95126 13.5712 2.80315 13.1066 3.83853C12.6419 4.87391 12.5341 6.03422 12.8 7.13749C10.7618 7.03439 8.76805 6.50368 6.94832 5.57981C5.12859 4.65595 3.52356 3.3596 2.2375 1.77499C1.78642 2.5627 1.5494 3.45477 1.55 4.36249C1.5484 5.20547 1.75527 6.03576 2.15219 6.77944C2.54912 7.52313 3.12377 8.15712 3.825 8.62499C3.00997 8.60281 2.21236 8.38411 1.5 7.98749V8.04999C1.50611 9.2311 1.91999 10.3739 2.67164 11.2849C3.42329 12.196 4.46657 12.8195 5.625 13.05C5.17881 13.1846 4.716 13.2561 4.25 13.2625C3.92739 13.2582 3.60559 13.229 3.2875 13.175C3.61739 14.191 4.25578 15.0789 5.11384 15.7152C5.97191 16.3515 7.00697 16.7044 8.075 16.725C6.2715 18.1441 4.04485 18.9186 1.75 18.925C1.33218 18.9261 0.914691 18.9011 0.5 18.85C2.84304 20.3628 5.57352 21.1659 8.3625 21.1625C10.2871 21.1825 12.1964 20.8188 13.9789 20.0926C15.7614 19.3664 17.3813 18.2923 18.744 16.9331C20.1067 15.5739 21.185 13.9567 21.9157 12.1761C22.6464 10.3955 23.015 8.48715 23 6.56249V5.89999C23.9814 5.16908 24.8274 4.27225 25.5 3.24999Z" fill="white"/>
</svg>
