<svg width="19" height="18" viewBox="0 0 19 18" fill="none" xmlns="http://www.w3.org/2000/svg">
<path d="M9.50001 0C14.7469 0 19 4.0293 19 8.99999C19 13.9707 14.7469 18 9.50001 18C7.82112 18.0027 6.17176 17.5818 4.72151 16.7805L0.00381468 18L1.28821 13.5288C0.441725 12.1544 -0.00292754 10.5912 1.45052e-05 8.99999C1.45052e-05 4.0293 4.25316 0 9.50001 0ZM6.26241 4.77L6.07241 4.7772C5.94957 4.78522 5.82954 4.81578 5.71901 4.8672C5.61601 4.92256 5.52194 4.99166 5.43971 5.0724C5.32571 5.1741 5.26111 5.2623 5.19176 5.3478C4.84038 5.78061 4.65119 6.31198 4.65406 6.85799C4.65596 7.29899 4.77756 7.72829 4.96756 8.12969C5.35611 8.94149 5.99546 9.80099 6.83906 10.5975C7.04236 10.7892 7.24186 10.9818 7.45656 11.1609C8.50482 12.0352 9.75392 12.6657 11.1046 13.0023L11.6442 13.0806C11.8199 13.0896 11.9957 13.077 12.1724 13.0689C12.449 13.0551 12.7191 12.9841 12.9637 12.861C13.088 12.8001 13.2094 12.734 13.3276 12.663C13.3276 12.663 13.3678 12.6372 13.4463 12.582C13.5746 12.492 13.6534 12.4281 13.7598 12.3228C13.8396 12.2448 13.9061 12.1542 13.9593 12.051C14.0334 11.9043 14.1075 11.6244 14.1379 11.3913C14.1607 11.2131 14.1541 11.1159 14.1512 11.0556C14.1474 10.9593 14.0629 10.8594 13.9707 10.8171L13.4178 10.5822C13.4178 10.5822 12.5913 10.2411 12.0859 10.0233C12.033 10.0015 11.9763 9.98897 11.9187 9.98639C11.8537 9.97995 11.788 9.98682 11.726 10.0065C11.6641 10.0263 11.6073 10.0584 11.5596 10.1007C11.5549 10.0989 11.4912 10.1502 10.8044 10.9386C10.7649 10.9888 10.7106 11.0267 10.6484 11.0475C10.5861 11.0684 10.5187 11.0712 10.4548 11.0556C10.3928 11.04 10.3322 11.0201 10.2733 10.9962C10.1555 10.9494 10.1147 10.9314 10.0339 10.899C9.48849 10.6739 8.98363 10.3693 8.53766 9.99629C8.41796 9.89729 8.30681 9.78929 8.19281 9.68489C7.81909 9.34578 7.49337 8.96218 7.22381 8.54369L7.16776 8.45819C7.12811 8.40041 7.0956 8.33851 7.07086 8.27369C7.03476 8.14139 7.12881 8.03519 7.12881 8.03519C7.12881 8.03519 7.35966 7.79579 7.46701 7.66619C7.57151 7.54019 7.65986 7.41779 7.71686 7.33049C7.82896 7.15949 7.86411 6.98399 7.80521 6.84809C7.53921 6.2325 7.26434 5.6202 6.98061 5.0112C6.92456 4.8906 6.75831 4.8042 6.60726 4.7871C6.55596 4.7811 6.50466 4.7763 6.45336 4.7727C6.3258 4.76577 6.1979 4.76697 6.07051 4.7763L6.26241 4.77Z" fill="white"/>
</svg>
