<svg width="30" height="22" viewBox="0 0 30 22" fill="none" xmlns="http://www.w3.org/2000/svg">
<path d="M15.0956 0.748138H15.2625C16.8038 0.753763 24.6131 0.810014 26.7188 1.37626C27.3553 1.54908 27.9353 1.88593 28.4009 2.35315C28.8665 2.82038 29.2013 3.40161 29.3719 4.03876C29.5613 4.75126 29.6944 5.69439 29.7844 6.66751L29.8031 6.86251L29.8444 7.35001L29.8594 7.54501C29.9813 9.25876 29.9963 10.8638 29.9981 11.2144V11.355C29.9963 11.7188 29.9794 13.4325 29.8444 15.2175L29.8294 15.4144L29.8125 15.6094C29.7188 16.6819 29.58 17.7469 29.3719 18.5306C29.2013 19.1678 28.8665 19.749 28.4009 20.2162C27.9353 20.6835 27.3553 21.0203 26.7188 21.1931C24.5438 21.7781 16.2769 21.8194 15.1312 21.8213H14.865C14.2856 21.8213 11.8894 21.81 9.37687 21.7238L9.05812 21.7125L8.895 21.705L8.57438 21.6919L8.25375 21.6788C6.1725 21.5869 4.19063 21.4388 3.2775 21.1913C2.64118 21.0186 2.06128 20.682 1.59572 20.2152C1.13016 19.7483 0.795231 19.1674 0.624375 18.5306C0.41625 17.7488 0.2775 16.6819 0.18375 15.6094L0.16875 15.4125L0.15375 15.2175C0.0606814 13.947 0.00940372 12.6739 0 11.4L0 11.1694C0.00375 10.7663 0.01875 9.37314 0.12 7.83564L0.133125 7.64251L0.13875 7.54501L0.15375 7.35001L0.195 6.86251L0.21375 6.66751C0.30375 5.69439 0.436875 4.74939 0.62625 4.03876C0.79682 3.40161 1.13162 2.82038 1.5972 2.35315C2.06278 1.88593 2.64283 1.54908 3.27937 1.37626C4.1925 1.13251 6.17437 0.982513 8.25562 0.888763L8.57438 0.875638L8.89687 0.864389L9.05812 0.858764L9.37875 0.845639C11.1632 0.78827 12.9484 0.756392 14.7337 0.750014L15.0956 0.748138ZM12 6.76689V15.8006L19.7944 11.2856L12 6.76689Z" fill="white"/>
</svg>
