<svg width="25" height="24" viewBox="0 0 25 24" fill="none" xmlns="http://www.w3.org/2000/svg">
<path d="M5.67505 3.24979C5.67472 3.91283 5.41101 4.54858 4.94193 5.01719C4.47286 5.48579 3.83684 5.74887 3.1738 5.74854C2.51076 5.7482 1.875 5.48449 1.4064 5.01542C0.937792 4.54634 0.674718 3.91033 0.675049 3.24729C0.675381 2.58424 0.939091 1.94849 1.40817 1.47988C1.87724 1.01128 2.51326 0.748204 3.1763 0.748535C3.83934 0.748867 4.47509 1.01258 4.9437 1.48165C5.41231 1.95073 5.67538 2.58674 5.67505 3.24979ZM5.75005 7.59978H0.750049V23.2498H5.75005V7.59978ZM13.65 7.59978H8.67505V23.2498H13.6V15.0373C13.6 10.4623 19.5625 10.0373 19.5625 15.0373V23.2498H24.5V13.3373C24.5 5.62479 15.675 5.91229 13.6 9.69979L13.65 7.59978Z" fill="white"/>
</svg>
