<svg width="42" height="35" viewBox="0 0 42 35" fill="none" xmlns="http://www.w3.org/2000/svg">
<path d="M37.6667 9.16683L21.0001 19.5835L4.33341 9.16683V5.00016L21.0001 15.4168L37.6667 5.00016M37.6667 0.833496H4.33341C2.02091 0.833496 0.166748 2.68766 0.166748 5.00016V30.0002C0.166748 31.1052 0.605735 32.165 1.38714 32.9464C2.16854 33.7278 3.22835 34.1668 4.33341 34.1668H37.6667C38.7718 34.1668 39.8316 33.7278 40.613 32.9464C41.3944 32.165 41.8334 31.1052 41.8334 30.0002V5.00016C41.8334 3.89509 41.3944 2.83529 40.613 2.05388C39.8316 1.27248 38.7718 0.833496 37.6667 0.833496Z" fill="white"/>
</svg>
